<svg width="45" height="44" viewBox="0 0 45 44" fill="none" xmlns="http://www.w3.org/2000/svg">
<path d="M12.834 19.375C9.86523 19.3379 7.43457 17.7979 5.96875 15.5713C5.63477 15.0889 5.48633 14.5508 5.48633 13.9385V11.3408C5.48633 10.7285 5.63477 10.209 5.96875 9.70801C7.43457 7.48145 9.86523 5.88574 12.834 5.88574C16.7861 5.88574 19.9961 8.96582 19.9961 12.6025C20.0146 16.3135 16.7861 19.4121 12.834 19.375ZM31.1475 19.375C27.2139 19.4121 23.9668 16.3135 23.9854 12.6025C23.9854 8.96582 27.2139 5.88574 31.1475 5.88574C34.1162 5.88574 36.5469 7.48145 38.0312 9.70801C38.3467 10.209 38.4951 10.7285 38.4951 11.3408V13.9385C38.4951 14.5508 38.3467 15.0889 38.0312 15.5713C36.5469 17.7979 34.1162 19.3379 31.1475 19.375ZM8.3252 15.0703C8.71484 15.0703 8.99316 14.8105 8.99316 14.4209V10.8213C8.99316 10.4502 8.71484 10.1904 8.3252 10.1904C7.97266 10.1904 7.69434 10.4502 7.69434 10.8213V14.4209C7.69434 14.8105 7.97266 15.0703 8.3252 15.0703ZM35.6562 15.0703C36.0273 15.0703 36.2871 14.8105 36.2871 14.4209V10.8213C36.2871 10.4502 36.0273 10.1904 35.6562 10.1904C35.2666 10.1904 35.0068 10.4502 35.0068 10.8213V14.4209C35.0068 14.8105 35.2666 15.0703 35.6562 15.0703ZM14.0771 34.0889V20.8037C15.6543 20.5996 17.1201 19.9688 18.3076 19.0596V34.0889H14.0771ZM29.9043 34.0889H25.6738V19.0596C26.8613 19.9688 28.3271 20.5996 29.9043 20.8037V34.0889ZM15.4316 39.2656C14.5596 39.2656 14.0771 38.8574 14.0771 38.0596V35.6104H18.3076V38.0596C18.3076 38.8574 17.8438 39.2656 16.9346 39.2656H15.4316ZM28.5498 39.2656H27.0654C26.1377 39.2656 25.6738 38.8574 25.6738 38.0596V35.6104H29.9043V38.0596C29.9043 38.8574 29.4219 39.2656 28.5498 39.2656Z" fill="#5D5D63"/>
</svg>
