<svg width="45" height="44" viewBox="0 0 45 44" fill="none" xmlns="http://www.w3.org/2000/svg">
<path d="M13.4092 40.2861C9.79102 40.2861 7.76855 39.8223 6.26562 38.3379C4.78125 36.8721 4.33594 34.8496 4.33594 31.2129V13.8828C4.33594 10.4688 4.7998 8.46484 6.28418 6.98047C7.76855 5.49609 9.82812 4.99512 13.2236 4.99512H30.5908C34.209 4.99512 36.2314 5.47754 37.7344 6.96191C39.2188 8.42773 39.6641 10.4316 39.6641 14.0684V31.2129C39.6641 34.8496 39.2188 36.8535 37.7344 38.3379C36.25 39.8223 34.209 40.2861 30.5908 40.2861H13.4092ZM13.502 18.6143C15.0234 18.7812 16.2295 17.0928 16.0996 15.7568C14.5967 15.8311 13.4648 17.2041 13.502 18.6143ZM23.8926 16.7031H21.9443V18.9297H20.5898V20.4512H21.9443V25.9434C21.9443 27.8545 22.7051 28.541 24.6533 28.541C25.0801 28.541 25.5439 28.4854 25.6738 28.4668V26.8525C25.5996 26.9268 25.2656 26.9268 25.0801 26.9268C24.3008 26.9268 23.8926 26.5928 23.8926 25.7393V20.4512H25.7295V18.9297H23.8926V16.7031ZM18.7158 25.2012C17.9922 24.8857 17.5283 24.3662 17.25 23.6982C16.9531 22.9561 17.0645 22.2139 17.25 21.5459C17.3799 21.1377 17.6953 20.6182 18.4189 20.1914C17.8623 19.3379 17.0088 18.9297 15.9883 18.9297C14.8193 18.9297 14.1328 19.542 13.5391 19.542C13.0752 19.542 12.5371 18.9668 11.5908 18.9668C10.5703 18.9668 9.77246 19.375 9.21582 20.0615C8.58496 20.8408 8.3252 21.8242 8.3252 22.8262C8.3252 24.4775 9.08594 26.3701 10.1436 27.6133C10.6816 28.2627 11.1455 28.5781 11.6836 28.5781C12.4443 28.5781 12.8711 28.0215 13.7988 28.0215C14.1885 28.0215 14.5596 28.1885 14.7637 28.2627C15.1533 28.4111 15.4131 28.541 15.877 28.541C16.3408 28.541 16.7119 28.3555 16.9531 28.1143C17.7881 27.3535 18.4375 26.166 18.7158 25.2012ZM32.2051 28.4668L35.6377 18.9297H33.5039L31.1475 26.5928L28.7168 18.9297H26.6201L30.127 28.4668H32.2051Z" fill="#5D5D63"/>
</svg>
