<svg width="50" height="44" viewBox="0 0 50 44" fill="none" xmlns="http://www.w3.org/2000/svg">
<path d="M0.00683594 35.2393C0.00683594 34.4414 0.582031 33.8477 1.36133 33.8477H5.4248V12.25C5.4248 9.875 6.66797 8.65039 9.02441 8.65039H40.957C43.3506 8.65039 44.5752 9.875 44.5752 12.25V33.8477H48.6201C49.3994 33.8477 49.9746 34.4414 49.9746 35.2393C49.9746 36.0186 49.3994 36.6123 48.6201 36.6123H1.36133C0.582031 36.6123 0.00683594 36.0186 0.00683594 35.2393ZM6.79785 33.8477H43.1836V12.4727C43.1836 10.8398 42.3672 10.042 40.7344 10.042H9.24707C7.61426 10.042 6.79785 10.8398 6.79785 12.4727V33.8477Z" fill="#5D5D63"/>
</svg>
