<svg width="45" height="44" viewBox="0 0 45 44" fill="none" xmlns="http://www.w3.org/2000/svg">
<path d="M22 42.3457C15.9326 42.3457 12.4814 39.4697 12.0176 33.8662C11.3682 25.832 11.3682 19.4307 12.0361 11.248C12.4814 5.7373 15.9326 2.84277 22 2.84277C28.0674 2.84277 31.5186 5.7373 31.9824 11.248C32.6318 19.4307 32.6318 25.832 31.9824 33.8662C31.5186 39.4697 28.0674 42.3457 22 42.3457ZM22 40.9727C27.251 40.9727 30.2197 38.5791 30.6094 33.8662C31.2588 25.832 31.2402 19.4307 30.5908 11.248C30.2197 6.60938 27.251 4.23438 22 4.23438C16.749 4.23438 13.7803 6.60938 13.4092 11.248C12.7598 19.4307 12.7598 25.832 13.3906 33.8662C13.7803 38.5791 16.749 40.9727 22 40.9727ZM22.9092 30.5449C22.668 30.8047 22.2783 31.0273 21.9629 31.0273H21.8701C21.8701 31.0088 21.8516 30.9346 21.8516 30.8975C21.8516 30.5449 22.0371 30.1924 22.2598 29.9697C22.4824 29.6729 22.9092 29.4688 23.2246 29.4688C23.2432 29.4873 23.2432 29.543 23.2432 29.5801C23.2432 29.9512 23.0947 30.2852 22.9092 30.5449ZM22.0186 35.9629C21.499 35.9629 21.332 36.2412 20.8867 36.2412C20.4785 36.2412 20.1631 35.8701 19.8291 35.3691C19.4209 34.8125 19.124 33.9775 19.124 33.1426C19.124 31.8252 19.9775 31.1201 20.8496 31.1201C21.2764 31.1201 21.6289 31.3984 21.9443 31.3984C22.2041 31.3984 22.6123 31.1201 23.1318 31.1201C23.3174 31.1201 24.041 31.1201 24.4678 31.7695C24.4121 31.8066 23.7441 32.1777 23.7441 33.0684C23.7441 34.0889 24.6348 34.4229 24.6533 34.46C24.6533 34.46 24.5234 34.9424 24.1895 35.3877C23.8926 35.833 23.5771 36.2412 23.1318 36.2412C22.668 36.2412 22.5752 35.9629 22.0186 35.9629Z" fill="#5D5D63"/>
</svg>
