<svg width="45" height="44" viewBox="0 0 45 44" fill="none" xmlns="http://www.w3.org/2000/svg">
<path d="M4.78125 32.8457C2.44336 32.8457 0.996094 31.3984 0.996094 29.0605V5.10645C0.996094 2.76855 2.44336 1.32129 4.78125 1.32129H20.2373C22.2969 1.32129 23.707 2.56445 23.8555 4.47559C23.874 4.66113 23.8926 5.18066 23.8926 5.88574C23.373 5.97852 22.8721 6.1084 22.4082 6.27539C22.4082 5.55176 22.4082 5.01367 22.3711 4.80957C22.3525 3.47363 21.4805 2.67578 20.0889 2.67578H4.92969C3.31543 2.67578 2.33203 3.62207 2.33203 5.21777V28.9492C2.33203 30.5635 3.31543 31.4912 4.92969 31.4912H12.9639V32.8457H4.78125ZM9.21582 9.2627C9.21582 7.01758 11.0156 5.21777 13.2422 5.21777C15.3574 5.21777 17.0459 6.85059 17.1572 8.94727C16.7119 9.33691 16.3037 9.74512 15.9141 10.1904C16.6006 8.40918 15.2461 6.40527 13.2422 6.40527C11.665 6.40527 10.3848 7.68555 10.3848 9.24414C10.3848 10.8213 11.665 12.083 13.2422 12.083C13.8359 12.083 14.374 11.916 14.8379 11.6191C14.5039 12.1016 14.2256 12.6582 14.0029 13.2148C11.5908 13.7158 9.21582 11.8047 9.21582 9.2627ZM28.8096 12.4912C24.041 12.4912 19.7734 11.4707 19.7734 9.80078C19.7734 8.13086 24.041 7.11035 28.8096 7.11035C33.5596 7.11035 37.8271 8.13086 37.8271 9.80078C37.8271 11.4707 33.5596 12.4912 28.8096 12.4912ZM28.8096 43.6445C18.9199 43.6445 14.6152 40.2861 14.6152 32.4746V18.3545C14.6152 14.5693 16.0811 12.3613 17.1572 11.2852C17.5654 10.8955 18.085 10.9326 18.4746 11.3965C19.9404 13.2891 23.8184 14.1426 28.8096 14.1426C33.7822 14.1426 37.6602 13.2891 39.1445 11.3965C39.5156 10.9326 40.0352 10.8955 40.4434 11.2852C41.5381 12.3613 43.0039 14.5693 43.0039 18.3545V32.4746C43.0039 40.2861 38.6807 43.6445 28.8096 43.6445ZM28.8096 42.2715C37.8086 42.2715 41.6123 39.21 41.6123 32.2148V18.3916C41.6123 16.2207 41.1113 14.3652 39.7197 12.6768C37.9014 14.7178 34.0234 15.5342 28.8096 15.5342C23.5957 15.5342 19.6992 14.7178 17.8994 12.6768C16.4893 14.3652 15.9883 16.2207 15.9883 18.3916V32.2148C15.9883 39.21 19.792 42.2715 28.8096 42.2715ZM5.80176 21.9727C5.80176 17.9834 9.21582 14.8848 13.2793 15.293C13.0566 16.3877 12.9639 17.4082 12.9639 18.707C10.8857 18.4844 9.21582 20.043 9.21582 21.9541C9.21582 23.9766 10.96 25.498 12.9639 25.2383V28.6895C9.10449 28.9492 5.80176 25.8506 5.80176 21.9727Z" fill="#5D5D63"/>
</svg>
