<svg width="45" height="44" viewBox="0 0 45 44" fill="none" xmlns="http://www.w3.org/2000/svg">
<path d="M22.3525 40.917C17.3799 40.917 12.7227 38.4678 9.58691 34.3301C9.43848 34.1445 9.38281 33.959 9.38281 33.792C9.38281 33.4209 9.7168 33.1611 10.0693 33.1611C10.3105 33.1611 10.5332 33.2539 10.7188 33.4951C13.5576 37.2988 17.8066 39.5068 22.3525 39.5068C30.7764 39.5068 37.5674 31.9551 37.5674 22.6035C37.5674 13.2334 30.7764 5.68164 22.3525 5.68164C17.8066 5.68164 13.5576 7.9082 10.7188 11.7119C10.5332 11.9531 10.3105 12.0459 10.0693 12.0459C9.7168 12.0459 9.38281 11.7676 9.38281 11.3965C9.38281 11.2295 9.43848 11.0625 9.58691 10.877C12.7227 6.7207 17.3799 4.29004 22.3525 4.29004C31.5186 4.29004 38.9775 12.4727 38.9775 22.6035C38.9775 32.7158 31.5186 40.917 22.3525 40.917ZM5.00391 32.4189V12.7881C5.00391 10.3945 7.3418 8.81738 9.41992 9.42969C8.75195 10.2275 8.34375 10.8027 8.34375 11.3965C8.34375 12.3428 9.19727 13.1035 10.125 13.1035C11.0342 13.1035 11.2939 12.5469 11.9434 11.8047C12.0361 12.1201 12.0918 12.4541 12.0918 12.7881V32.4189C12.0918 32.7529 12.0361 33.0869 11.9434 33.4023C11.2383 32.5859 11.0342 32.1035 10.125 32.1035C9.19727 32.1035 8.34375 32.8643 8.34375 33.8105C8.34375 34.4414 8.80762 35.0352 9.41992 35.7773C7.30469 36.4082 5.00391 34.7568 5.00391 32.4189ZM8.56641 21.8984C9.88379 21.8984 10.9785 20.8223 10.9785 19.4863C10.9785 18.1689 9.88379 17.0742 8.56641 17.0742C7.19336 17.0742 6.11719 18.1318 6.11719 19.4863C6.11719 20.8408 7.19336 21.8984 8.56641 21.8984ZM8.56641 20.9893C7.67578 20.9893 7.02637 20.3398 7.02637 19.4863C7.02637 18.6143 7.67578 17.9834 8.56641 17.9834C9.40137 17.9834 10.0693 18.6143 10.0693 19.4863C10.0693 20.3398 9.40137 20.9893 8.56641 20.9893Z" fill="#5D5D63"/>
</svg>
