<svg width="45" height="44" viewBox="0 0 45 44" fill="none" xmlns="http://www.w3.org/2000/svg">
<path d="M7.39746 37.6514V7.62988C7.39746 4.53125 9.1416 2.80566 12.2588 2.80566H31.7227C34.8398 2.80566 36.584 4.53125 36.584 7.62988V37.6514C36.584 40.75 34.8398 42.457 31.7227 42.457H12.2588C9.1416 42.457 7.39746 40.75 7.39746 37.6514ZM8.77051 37.5215C8.77051 39.8594 10.0137 41.084 12.3701 41.084H31.6113C33.9678 41.084 35.2109 39.8594 35.2109 37.5215V7.75977C35.2109 5.42188 33.9678 4.19727 31.6113 4.19727H12.3701C10.0137 4.19727 8.77051 5.42188 8.77051 7.75977V37.5215ZM16.9531 39.6738C16.6562 39.6738 16.3965 39.4326 16.3965 39.1172C16.3965 38.8018 16.6562 38.5605 16.9531 38.5605H27.0283C27.3438 38.5605 27.585 38.8018 27.585 39.1172C27.585 39.4326 27.3438 39.6738 27.0283 39.6738H16.9531Z" fill="#5D5D63"/>
</svg>
