<svg width="45" height="44" viewBox="0 0 45 44" fill="none" xmlns="http://www.w3.org/2000/svg">
<path d="M16.0439 40.9912C13.0938 40.9912 11.5166 39.3955 11.5166 36.4824V8.72461C11.5166 5.81152 13.0938 4.23438 16.0439 4.23438H27.9561C30.8877 4.23438 32.4648 5.81152 32.4648 8.72461V36.4824C32.4648 39.3955 30.8877 40.9912 27.9561 40.9912H16.0439ZM16.1553 39.5996H27.8262C30.0713 39.5996 31.0918 38.6162 31.0918 36.3896V8.83594C31.0918 6.60938 30.0713 5.60742 27.8262 5.60742H25.6553C25.4141 5.60742 25.2842 5.7373 25.2842 5.95996V6.18262C25.2842 6.77637 24.9131 7.18457 24.3193 7.18457H19.6807C19.0869 7.18457 18.6973 6.77637 18.6973 6.18262V5.95996C18.6973 5.7373 18.5674 5.60742 18.3262 5.60742H16.1553C13.9287 5.60742 12.8896 6.60938 12.8896 8.83594V36.3896C12.8896 38.6162 13.9287 39.5996 16.1553 39.5996ZM18.2705 38.375C17.9551 38.375 17.7139 38.1338 17.7139 37.8184C17.7139 37.5029 17.9551 37.2617 18.2705 37.2617H25.7295C26.0264 37.2617 26.2861 37.5029 26.2861 37.8184C26.2861 38.1338 26.0264 38.375 25.7295 38.375H18.2705Z" fill="#5D5D63"/>
</svg>
