<svg width="45" height="44" viewBox="0 0 45 44" fill="none" xmlns="http://www.w3.org/2000/svg">
<path d="M10.9229 28.8008V16.4434C10.9229 13.6045 11.8877 11.749 13.9102 10.6172C14.7822 10.1533 15.1533 9.80078 15.5059 8.78027L16.3037 6.20117C16.5635 5.36621 17.1758 4.9209 18.0664 4.9209H25.8223C26.7314 4.9209 27.3623 5.36621 27.585 6.20117L28.4014 8.78027C28.7354 9.80078 29.1064 10.1533 29.96 10.6172C31.9082 11.7119 32.873 13.4375 32.9658 16.0537H33.1885C33.9678 16.0537 34.5059 16.6104 34.5059 17.4639V20.0986C34.5059 20.9521 33.9678 21.5273 33.1885 21.5273H32.9658V28.8008C32.9658 31.6396 32.001 33.4766 29.96 34.627C29.1064 35.0908 28.7354 35.4434 28.4014 36.4639L27.585 39.043C27.3438 39.8965 26.7314 40.3232 25.8223 40.3232H18.0664C17.1758 40.3232 16.5635 39.8779 16.3037 39.043L15.5059 36.4639C15.1533 35.4434 14.7822 35.0908 13.9102 34.627C11.8877 33.4766 10.9229 31.6396 10.9229 28.8008ZM12.2402 28.6895C12.2402 32.085 14.2627 34.126 17.6582 34.126H26.249C29.6445 34.126 31.6484 32.085 31.6484 28.6895V16.5547C31.6484 13.1592 29.6445 11.1182 26.249 11.1182H17.6582C14.2627 11.1182 12.2402 13.1592 12.2402 16.5547V28.6895Z" fill="#5D5D63"/>
</svg>
